<?xml version="1.0" encoding="UTF-8" standalone="no"?>
<svg
   width="100px"
   height="100px"
   viewBox="0 0 48 48"
   version="1.1"
   id="svg11"
   sodipodi:docname="standard-pipelines.svg"
   inkscape:version="1.2.2 (b0a8486541, 2022-12-01)"
   xmlns:inkscape="http://www.inkscape.org/namespaces/inkscape"
   xmlns:sodipodi="http://sodipodi.sourceforge.net/DTD/sodipodi-0.dtd"
   xmlns="http://www.w3.org/2000/svg"
   xmlns:svg="http://www.w3.org/2000/svg">
  <defs
     id="defs15" />
  <sodipodi:namedview
     id="namedview13"
     pagecolor="#ffffff"
     bordercolor="#000000"
     borderopacity="0.25"
     inkscape:showpageshadow="2"
     inkscape:pageopacity="0.0"
     inkscape:pagecheckerboard="0"
     inkscape:deskcolor="#d1d1d1"
     showgrid="false"
     inkscape:zoom="7.43"
     inkscape:cx="29.273217"
     inkscape:cy="48.048452"
     inkscape:window-width="1351"
     inkscape:window-height="928"
     inkscape:window-x="2062"
     inkscape:window-y="22"
     inkscape:window-maximized="0"
     inkscape:current-layer="svg11" />
  <title
     id="title2">pipeline</title>
  <rect
     width="48"
     height="48"
     fill="none"
     id="rect4"
     x="0"
     y="0" />
  <path
     d="m 40,30 a 2,2 0 0 0 -2,2 v 1 H 22 a 2,2 0 0 1 0,-4 h 4 A 12,12 0 0 0 26,5 H 10 V 4 A 2,2 0 0 0 6,4 v 12 a 2,2 0 0 0 4,0 v -1 h 16 a 2,2 0 0 1 0,4 h -4 a 12,12 0 0 0 0,24 h 16 v 1 a 2,2 0 0 0 4,0 V 32 a 2,2 0 0 0 -2,-2 z m -18,9 a 8,8 0 0 1 0,-16 h 4 A 6,6 0 0 0 26,11 H 10 V 9 h 16 a 8,8 0 0 1 0,16 h -4 a 6,6 0 0 0 0,12 h 16 v 2 z"
     id="path7"
     style="fill:#2196f3;fill-opacity:1" />
</svg>
